<svg width="796.219970703125px" height="184.4322265625px" xmlns="http://www.w3.org/2000/svg" viewBox="-148.1099853515625 -17.216113281250003 796.219970703125 184.4322265625" style="background: none;" preserveAspectRatio="xMidYMid"><defs><linearGradient id="editing-glowing-gradient" x1="0.8146601955249185" x2="0.18533980447508147" y1="0.8885729807284856" y2="0.11142701927151444"><stop offset="0" stop-color="#67ff43"></stop><stop offset="1" stop-color="#90ffff"></stop></linearGradient><filter id="editing-glowing" x="-100%" y="-100%" width="300%" height="300%"><feGaussianBlur in="SourceGraphic" result="blur" stdDeviation="10"></feGaussianBlur><feMerge><feMergeNode in="blur"></feMergeNode><feMergeNode in="SourceGraphic"></feMergeNode></feMerge></filter></defs><g filter="url(#editing-glowing)"><g transform="translate(-27.57501709461212, 80.30000019073486)"><path d="M1.87 11.75L1.87 11.75L1.87 11.75Q1.87 8.32 4.06 6.19L4.06 6.19L4.06 6.19Q6.24 4.06 9.57 4.06L9.57 4.06L53.35 4.06L53.35 4.06Q53.87 5.82 53.87 7.18L53.87 7.18L53.87 7.18Q53.87 10.30 51.74 12.48L51.74 12.48L51.74 12.48Q49.61 14.66 45.24 14.66L45.24 14.66L2.29 14.66L2.29 14.66Q1.87 13.31 1.87 11.75ZM73.22 11.75L73.22 11.75L73.22 11.75Q73.22 8.32 75.40 6.19L75.40 6.19L75.40 6.19Q77.58 4.06 80.91 4.06L80.91 4.06L124.70 4.06L124.70 4.06Q125.22 5.82 125.22 7.18L125.22 7.18L125.22 7.18Q125.22 10.30 123.08 12.48L123.08 12.48L123.08 12.48Q120.95 14.66 116.58 14.66L116.58 14.66L73.63 14.66L73.63 14.66Q73.22 13.31 73.22 11.75ZM144.56 11.75L144.56 11.75L144.56 11.75Q144.56 8.32 146.74 6.19L146.74 6.19L146.74 6.19Q148.93 4.06 152.26 4.06L152.26 4.06L196.04 4.06L196.04 4.06Q196.56 5.82 196.56 7.18L196.56 7.18L196.56 7.18Q196.56 10.30 194.43 12.48L194.43 12.48L194.43 12.48Q192.30 14.66 187.93 14.66L187.93 14.66L144.98 14.66L144.98 14.66Q144.56 13.31 144.56 11.75ZM215.90 11.75L215.90 11.75L215.90 11.75Q215.90 8.32 218.09 6.19L218.09 6.19L218.09 6.19Q220.27 4.06 223.60 4.06L223.60 4.06L267.38 4.06L267.38 4.06Q267.90 5.82 267.90 7.18L267.90 7.18L267.90 7.18Q267.90 10.30 265.77 12.48L265.77 12.48L265.77 12.48Q263.64 14.66 259.27 14.66L259.27 14.66L216.32 14.66L216.32 14.66Q215.90 13.31 215.90 11.75ZM287.25 11.75L287.25 11.75L287.25 11.75Q287.25 8.32 289.43 6.19L289.43 6.19L289.43 6.19Q291.62 4.06 294.94 4.06L294.94 4.06L338.73 4.06L338.73 4.06Q339.25 5.82 339.25 7.18L339.25 7.18L339.25 7.18Q339.25 10.30 337.12 12.48L337.12 12.48L337.12 12.48Q334.98 14.66 330.62 14.66L330.62 14.66L287.66 14.66L287.66 14.66Q287.25 13.31 287.25 11.75ZM358.59 11.75L358.59 11.75L358.59 11.75Q358.59 8.32 360.78 6.19L360.78 6.19L360.78 6.19Q362.96 4.06 366.29 4.06L366.29 4.06L410.07 4.06L410.07 4.06Q410.59 5.82 410.59 7.18L410.59 7.18L410.59 7.18Q410.59 10.30 408.46 12.48L408.46 12.48L408.46 12.48Q406.33 14.66 401.96 14.66L401.96 14.66L359.01 14.66L359.01 14.66Q358.59 13.31 358.59 11.75ZM429.94 11.75L429.94 11.75L429.94 11.75Q429.94 8.32 432.12 6.19L432.12 6.19L432.12 6.19Q434.30 4.06 437.63 4.06L437.63 4.06L481.42 4.06L481.42 4.06Q481.94 5.82 481.94 7.18L481.94 7.18L481.94 7.18Q481.94 10.30 479.80 12.48L479.80 12.48L479.80 12.48Q477.67 14.66 473.30 14.66L473.30 14.66L430.35 14.66L430.35 14.66Q429.94 13.31 429.94 11.75ZM501.28 11.75L501.28 11.75L501.28 11.75Q501.28 8.32 503.46 6.19L503.46 6.19L503.46 6.19Q505.65 4.06 508.98 4.06L508.98 4.06L552.76 4.06L552.76 4.06Q553.28 5.82 553.28 7.18L553.28 7.18L553.28 7.18Q553.28 10.30 551.15 12.48L551.15 12.48L551.15 12.48Q549.02 14.66 544.65 14.66L544.65 14.66L501.70 14.66L501.70 14.66Q501.28 13.31 501.28 11.75Z" fill="url(#editing-glowing-gradient)"></path></g></g><style>text {
  font-size: 64px;
  font-family: Arial Black;
  dominant-baseline: central;
  text-anchor: middle;
}</style></svg>