<svg width="851.916259765625px" height="122.021240234375px" xmlns="http://www.w3.org/2000/svg" viewBox="-175.9581298828125 13.9893798828125 851.916259765625 122.021240234375" style="background: none;" preserveAspectRatio="xMidYMid"><defs><filter id="editing-hole" x="-100%" y="-100%" width="300%" height="300%"><feFlood flood-color="#000000" result="black"></feFlood><feMorphology operator="dilate" radius="2" in="SourceGraphic" result="erode"></feMorphology><feGaussianBlur in="erode" stdDeviation="4" result="blur"></feGaussianBlur><feOffset in="blur" dx="2" dy="2" result="offset"></feOffset><feComposite operator="atop" in="offset" in2="black" result="merge"></feComposite><feComposite operator="in" in="merge" in2="SourceGraphic" result="inner-shadow"></feComposite></filter></defs><g filter="url(#editing-hole)"><g transform="translate(-54.997817397117615, 97.39218711853027)"><path d="M34.50-13.25L34.50-13.25L34.50-13.25Q36.16-12.03 36.16-9.44L36.16-9.44L36.16-9.44Q36.16-6.85 35.04-5.02L35.04-5.02L35.04-5.02Q33.92-3.20 31.74-1.79L31.74-1.79L31.74-1.79Q27.07 1.22 18.91 1.22L18.91 1.22L18.91 1.22Q10.75 1.22 6.30-3.04L6.30-3.04L6.30-3.04Q1.86-7.30 1.86-14.85L1.86-14.85L1.86-14.85Q1.86-25.54 7.42-33.66L7.42-33.66L7.42-33.66Q11.65-39.68 19.20-42.24L19.20-42.24L19.20-42.24Q23.10-43.52 26.94-43.52L26.94-43.52L26.94-43.52Q30.78-43.52 33.15-43.01L33.15-43.01L33.15-43.01Q35.52-42.50 37.31-41.47L37.31-41.47L37.31-41.47Q41.22-39.23 41.22-35.65L41.22-35.65L41.22-35.65Q41.22-32.38 38.14-29.95L38.14-29.95L38.14-29.95Q35.33-27.78 33.02-27.78L33.02-27.78L33.02-27.78Q30.72-27.78 29.76-28.10L29.76-28.10L29.76-28.10Q30.02-30.40 30.02-31.90L30.02-31.90L30.02-31.90Q30.02-33.41 29.95-34.50L29.95-34.50L29.95-34.50Q29.89-35.58 29.57-36.61L29.57-36.61L29.57-36.61Q28.93-38.98 26.98-38.98L26.98-38.98L26.98-38.98Q25.02-38.98 23.07-37.15L23.07-37.15L23.07-37.15Q21.12-35.33 19.46-32.26L19.46-32.26L19.46-32.26Q15.68-25.28 15.68-17.02L15.68-17.02L15.68-17.02Q15.68-13.06 17.92-10.78L17.92-10.78L17.92-10.78Q20.16-8.51 24.96-8.51L24.96-8.51L24.96-8.51Q28.54-8.51 31.94-10.88L31.94-10.88L31.94-10.88Q33.41-11.90 34.50-13.25ZM61.50-17.98L61.50-17.98L61.50-17.98Q63.81-22.08 63.81-26.24L63.81-26.24L63.81-26.24Q63.81-28.99 61.82-28.99L61.82-28.99L61.82-28.99Q60.29-28.99 58.69-26.37L58.69-26.37L58.69-26.37Q57.02-23.74 56.51-20.35L56.51-20.35L53.18 0L39.94 1.28L46.46-32.64L57.02-33.92L55.87-27.46L55.87-27.46Q59.01-33.92 66.05-33.92L66.05-33.92L66.05-33.92Q69.76-33.92 71.78-32L71.78-32L71.78-32Q73.79-30.08 73.79-26.14L73.79-26.14L73.79-26.14Q73.79-22.21 71.20-19.71L71.20-19.71L71.20-19.71Q68.61-17.22 64.19-17.22L64.19-17.22L64.19-17.22Q62.27-17.22 61.50-17.98ZM100.74-10.82L100.74-10.82L100.74-10.82Q102.34-9.73 102.34-7.33L102.34-7.33L102.34-7.33Q102.34-4.93 101.12-3.39L101.12-3.39L101.12-3.39Q99.90-1.86 97.92-0.83L97.92-0.83L97.92-0.83Q93.82 1.28 89.41 1.28L89.41 1.28L89.41 1.28Q84.99 1.28 82.40 0.32L82.40 0.32L82.40 0.32Q79.81-0.64 78.08-2.43L78.08-2.43L78.08-2.43Q74.69-5.82 74.69-12.03L74.69-12.03L74.69-12.03Q74.69-21.70 79.94-27.58L79.94-27.58L79.94-27.58Q85.57-33.92 95.36-33.92L95.36-33.92L95.36-33.92Q101.44-33.92 104.45-31.36L104.45-31.36L104.45-31.36Q106.69-29.44 106.69-26.30L106.69-26.30L106.69-26.30Q106.69-15.04 87.23-15.04L87.23-15.04L87.23-15.04Q86.98-13.38 86.98-11.97L86.98-11.97L86.98-11.97Q86.98-9.02 88.29-7.90L88.29-7.90L88.29-7.90Q89.60-6.78 92.03-6.78L92.03-6.78L92.03-6.78Q94.46-6.78 97.06-7.90L97.06-7.90L97.06-7.90Q99.65-9.02 100.74-10.82ZM87.68-17.79L87.68-17.79L87.68-17.79Q92.22-17.79 94.85-20.61L94.85-20.61L94.85-20.61Q97.47-23.30 97.47-27.58L97.47-27.58L97.47-27.58Q97.47-29.06 96.93-29.86L96.93-29.86L96.93-29.86Q96.38-30.66 95.30-30.66L95.30-30.66L95.30-30.66Q94.21-30.66 93.28-30.24L93.28-30.24L93.28-30.24Q92.35-29.82 91.39-28.42L91.39-28.42L91.39-28.42Q89.02-25.22 87.68-17.79ZM111.65-1.92L111.65-1.92L111.65-1.92Q110.14-3.58 109.47-6.21L109.47-6.21L109.47-6.21Q108.80-8.83 108.80-13.12L108.80-13.12L108.80-13.12Q108.80-17.41 110.27-21.31L110.27-21.31L110.27-21.31Q111.74-25.22 114.43-28.03L114.43-28.03L114.43-28.03Q119.94-33.92 129.02-33.92L129.02-33.92L129.02-33.92Q132.29-33.92 134.66-32.83L134.66-32.83L145.60-33.92L140.86-8.96L140.86-8.96Q140.67-8.19 140.67-6.78L140.67-6.78L140.67-6.78Q140.67-5.38 141.54-4.48L141.54-4.48L141.54-4.48Q142.40-3.58 143.68-3.46L143.68-3.46L143.68-3.46Q143.04-1.28 140.70 0L140.70 0L140.70 0Q138.37 1.28 135.74 1.28L135.74 1.28L135.74 1.28Q133.12 1.28 131.36 0.29L131.36 0.29L131.36 0.29Q129.60-0.70 129.09-2.37L129.09-2.37L129.09-2.37Q128.06-0.77 125.89 0.26L125.89 0.26L125.89 0.26Q123.71 1.28 120.80 1.28L120.80 1.28L120.80 1.28Q117.89 1.28 115.52 0.51L115.52 0.51L115.52 0.51Q113.15-0.26 111.65-1.92ZM125.15-27.90L125.15-27.90L125.15-27.90Q124.42-26.75 123.78-24.80L123.78-24.80L123.78-24.80Q123.14-22.85 122.08-17.63L122.08-17.63L122.08-17.63Q121.02-12.42 121.02-8.70L121.02-8.70L121.02-8.70Q121.02-4.99 121.60-3.90L121.60-3.90L121.60-3.90Q122.18-2.82 123.20-2.82L123.20-2.82L123.20-2.82Q125.25-2.82 126.75-4.77L126.75-4.77L126.75-4.77Q128.26-6.72 128.83-10.18L128.83-10.18L132.22-28.93L132.22-28.93Q130.88-30.08 129.31-30.08L129.31-30.08L129.31-30.08Q127.74-30.08 126.82-29.57L126.82-29.57L126.82-29.57Q125.89-29.06 125.15-27.90ZM150.08-6.40L150.08-6.40L150.08-6.40Q150.08-8.13 150.98-12.48L150.98-12.48L154.37-29.76L150.59-29.76L150.85-31.68L150.85-31.68Q158.53-33.98 165.95-39.62L165.95-39.62L169.02-39.62L167.49-32.64L172.48-32.64L171.90-29.76L166.98-29.76L163.71-12.48L163.71-12.48Q162.88-8.51 162.88-7.17L162.88-7.17L162.88-7.17Q162.88-4.10 165.57-3.46L165.57-3.46L165.57-3.46Q164.93-1.28 162.62 0L162.62 0L162.62 0Q160.32 1.28 157.06 1.28L157.06 1.28L157.06 1.28Q153.79 1.28 151.94-0.77L151.94-0.77L151.94-0.77Q150.08-2.82 150.08-6.40ZM197.82-10.82L197.82-10.82L197.82-10.82Q199.42-9.73 199.42-7.33L199.42-7.33L199.42-7.33Q199.42-4.93 198.21-3.39L198.21-3.39L198.21-3.39Q196.99-1.86 195.01-0.83L195.01-0.83L195.01-0.83Q190.91 1.28 186.50 1.28L186.50 1.28L186.50 1.28Q182.08 1.28 179.49 0.32L179.49 0.32L179.49 0.32Q176.90-0.64 175.17-2.43L175.17-2.43L175.17-2.43Q171.78-5.82 171.78-12.03L171.78-12.03L171.78-12.03Q171.78-21.70 177.02-27.58L177.02-27.58L177.02-27.58Q182.66-33.92 192.45-33.92L192.45-33.92L192.45-33.92Q198.53-33.92 201.54-31.36L201.54-31.36L201.54-31.36Q203.78-29.44 203.78-26.30L203.78-26.30L203.78-26.30Q203.78-15.04 184.32-15.04L184.32-15.04L184.32-15.04Q184.06-13.38 184.06-11.97L184.06-11.97L184.06-11.97Q184.06-9.02 185.38-7.90L185.38-7.90L185.38-7.90Q186.69-6.78 189.12-6.78L189.12-6.78L189.12-6.78Q191.55-6.78 194.14-7.90L194.14-7.90L194.14-7.90Q196.74-9.02 197.82-10.82ZM184.77-17.79L184.77-17.79L184.77-17.79Q189.31-17.79 191.94-20.61L191.94-20.61L191.94-20.61Q194.56-23.30 194.56-27.58L194.56-27.58L194.56-27.58Q194.56-29.06 194.02-29.86L194.02-29.86L194.02-29.86Q193.47-30.66 192.38-30.66L192.38-30.66L192.38-30.66Q191.30-30.66 190.37-30.24L190.37-30.24L190.37-30.24Q189.44-29.82 188.48-28.42L188.48-28.42L188.48-28.42Q186.11-25.22 184.77-17.79ZM246.21 1.28L246.21 1.28L246.21 1.28Q238.46 1.28 238.46-4.74L238.46-4.74L238.46-4.74Q238.53-6.40 239.04-9.22L239.04-9.22L240.19-15.10L240.19-15.10Q241.92-23.42 241.92-25.28L241.92-25.28L241.92-25.28Q241.92-28.99 239.74-28.99L239.74-28.99L239.74-28.99Q236.10-28.99 234.18-19.46L234.18-19.46L230.40 0L217.54 1.28L224.19-32.70L234.69-33.92L233.66-27.65L233.66-27.65Q236.67-33.92 245.89-33.92L245.89-33.92L245.89-33.92Q250.37-33.92 252.26-32.03L252.26-32.03L252.26-32.03Q254.14-30.14 254.14-25.92L254.14-25.92L254.14-25.92Q254.14-21.95 252.10-12.67L252.10-12.67L252.10-12.67Q251.14-8.51 251.14-6.94L251.14-6.94L251.14-6.94Q251.14-5.38 252-4.48L252-4.48L252-4.48Q252.86-3.58 254.14-3.46L254.14-3.46L254.14-3.46Q253.50-1.28 251.30 0L251.30 0L251.30 0Q249.09 1.28 246.21 1.28ZM285.18-10.82L285.18-10.82L285.18-10.82Q286.78-9.73 286.78-7.33L286.78-7.33L286.78-7.33Q286.78-4.93 285.57-3.39L285.57-3.39L285.57-3.39Q284.35-1.86 282.37-0.83L282.37-0.83L282.37-0.83Q278.27 1.28 273.86 1.28L273.86 1.28L273.86 1.28Q269.44 1.28 266.85 0.32L266.85 0.32L266.85 0.32Q264.26-0.64 262.53-2.43L262.53-2.43L262.53-2.43Q259.14-5.82 259.14-12.03L259.14-12.03L259.14-12.03Q259.14-21.70 264.38-27.58L264.38-27.58L264.38-27.58Q270.02-33.92 279.81-33.92L279.81-33.92L279.81-33.92Q285.89-33.92 288.90-31.36L288.90-31.36L288.90-31.36Q291.14-29.44 291.14-26.30L291.14-26.30L291.14-26.30Q291.14-15.04 271.68-15.04L271.68-15.04L271.68-15.04Q271.42-13.38 271.42-11.97L271.42-11.97L271.42-11.97Q271.42-9.02 272.74-7.90L272.74-7.90L272.74-7.90Q274.05-6.78 276.48-6.78L276.48-6.78L276.48-6.78Q278.91-6.78 281.50-7.90L281.50-7.90L281.50-7.90Q284.10-9.02 285.18-10.82ZM272.13-17.79L272.13-17.79L272.13-17.79Q276.67-17.79 279.30-20.61L279.30-20.61L279.30-20.61Q281.92-23.30 281.92-27.58L281.92-27.58L281.92-27.58Q281.92-29.06 281.38-29.86L281.38-29.86L281.38-29.86Q280.83-30.66 279.74-30.66L279.74-30.66L279.74-30.66Q278.66-30.66 277.73-30.24L277.73-30.24L277.73-30.24Q276.80-29.82 275.84-28.42L275.84-28.42L275.84-28.42Q273.47-25.22 272.13-17.79ZM341.06-10.69L341.06-10.69Q336.83-4.86 332.77-1.79L332.77-1.79L332.77-1.79Q328.70 1.28 324.51 1.28L324.51 1.28L324.51 1.28Q320.32 1.28 318.85 0.45L318.85 0.45L318.85-13.63L318.85-13.63Q315.20-3.90 308.67-0.13L308.67-0.13L308.67-0.13Q306.30 1.28 304.06 1.28L304.06 1.28L304.06 1.28Q299.78 1.28 297.92 0.45L297.92 0.45L297.92 0.45Q297.47-14.21 297.09-18.27L297.09-18.27L297.09-18.27Q296.70-22.34 296.38-24.83L296.38-24.83L296.38-24.83Q295.74-29.82 293.57-31.87L293.57-31.87L293.57-31.87Q296.32-33.92 300.16-33.92L300.16-33.92L300.16-33.92Q307.58-33.92 308.61-24.70L308.61-24.70L308.61-24.70Q308.86-22.53 308.86-20.22L308.86-20.22L308.86-20.22Q308.86-16.77 308.10-4.74L308.10-4.74L308.10-4.74Q309.63-5.44 311.26-7.97L311.26-7.97L311.26-7.97Q312.90-10.50 314.24-13.95L314.24-13.95L314.24-13.95Q317.25-21.95 317.25-28.86L317.25-28.86L317.25-28.86Q317.25-29.95 316.96-31.10L316.96-31.10L316.96-31.10Q316.67-32.26 316.35-32.58L316.35-32.58L316.35-32.58Q318.59-33.92 322.02-33.92L322.02-33.92L322.02-33.92Q325.44-33.92 327.07-31.58L327.07-31.58L327.07-31.58Q328.70-29.25 329.15-24.96L329.15-24.96L329.15-24.96Q329.66-19.52 329.66-16.26L329.66-16.26L329.66-16.26Q329.66-11.71 329.22-4.99L329.22-4.99L329.22-4.99Q332.42-7.30 335.04-14.85L335.04-14.85L335.04-14.85Q337.66-22.40 337.66-27.78L337.66-27.78L337.66-27.78Q337.66-30.14 337.28-31.55L337.28-31.55L337.28-31.55Q339.39-33.92 343.04-33.92L343.04-33.92L343.04-33.92Q345.28-33.92 346.91-32.70L346.91-32.70L346.91-32.70Q348.54-31.49 348.54-29.22L348.54-29.22L348.54-29.22Q348.54-26.94 347.87-24.51L347.87-24.51L347.87-24.51Q347.20-22.08 346.11-19.58L346.11-19.58L346.11-19.58Q344-14.59 341.06-10.69L341.06-10.69ZM391.55 1.28L391.55 1.28L391.55 1.28Q383.36 1.28 382.59-10.37L382.59-10.37L371.58-10.37L371.58-10.37Q370.30-7.42 369.41-4.86L369.41-4.86L367.74 0L358.78 0L378.94-42.24L392.70-42.24L395.39-11.14L395.39-11.14Q396.03-4.42 398.59-2.43L398.59-2.43L398.59-2.43Q396.74 1.28 391.55 1.28ZM377.09-23.17L373.57-15.04L382.40-15.04L381.63-31.49L381.63-33.22L377.09-23.17ZM433.73-26.62L433.73-26.62L433.73-26.62Q433.73-23.94 431.49-22.27L431.49-22.27L431.49-22.27Q429.25-20.61 425.60-20.61L425.60-20.61L425.60-20.61Q424.06-20.61 423.17-21.06L423.17-21.06L423.17-21.06Q423.87-22.72 424.10-24.80L424.10-24.80L424.10-24.80Q424.32-26.88 424.32-27.46L424.32-27.46L424.32-27.46Q424.32-30.14 422.46-30.14L422.46-30.14L422.46-30.14Q421.18-30.14 419.74-28.54L419.74-28.54L419.74-28.54Q418.30-26.94 417.09-24.45L417.09-24.45L417.09-24.45Q414.40-18.69 414.40-12.86L414.40-12.86L414.40-12.86Q414.40-9.66 415.62-8.22L415.62-8.22L415.62-8.22Q416.83-6.78 419.52-6.78L419.52-6.78L419.52-6.78Q423.23-6.78 426.18-9.86L426.18-9.86L426.18-9.86Q427.01-10.82 427.46-11.90L427.46-11.90L427.46-11.90Q429.89-10.62 429.89-7.10L429.89-7.10L429.89-7.10Q429.89-3.52 425.92-1.15L425.92-1.15L425.92-1.15Q421.82 1.28 415.30 1.28L415.30 1.28L415.30 1.28Q402.30 1.28 402.30-12.48L402.30-12.48L402.30-12.48Q402.30-22.53 408-28.29L408-28.29L408-28.29Q413.50-33.92 423.62-33.92L423.62-33.92L423.62-33.92Q433.73-33.92 433.73-26.62ZM466.88-26.62L466.88-26.62L466.88-26.62Q466.88-23.94 464.64-22.27L464.64-22.27L464.64-22.27Q462.40-20.61 458.75-20.61L458.75-20.61L458.75-20.61Q457.22-20.61 456.32-21.06L456.32-21.06L456.32-21.06Q457.02-22.72 457.25-24.80L457.25-24.80L457.25-24.80Q457.47-26.88 457.47-27.46L457.47-27.46L457.47-27.46Q457.47-30.14 455.62-30.14L455.62-30.14L455.62-30.14Q454.34-30.14 452.90-28.54L452.90-28.54L452.90-28.54Q451.46-26.94 450.24-24.45L450.24-24.45L450.24-24.45Q447.55-18.69 447.55-12.86L447.55-12.86L447.55-12.86Q447.55-9.66 448.77-8.22L448.77-8.22L448.77-8.22Q449.98-6.78 452.67-6.78L452.67-6.78L452.67-6.78Q456.38-6.78 459.33-9.86L459.33-9.86L459.33-9.86Q460.16-10.82 460.61-11.90L460.61-11.90L460.61-11.90Q463.04-10.62 463.04-7.10L463.04-7.10L463.04-7.10Q463.04-3.52 459.07-1.15L459.07-1.15L459.07-1.15Q454.98 1.28 448.45 1.28L448.45 1.28L448.45 1.28Q435.46 1.28 435.46-12.48L435.46-12.48L435.46-12.48Q435.46-22.53 441.15-28.29L441.15-28.29L441.15-28.29Q446.66-33.92 456.77-33.92L456.77-33.92L456.77-33.92Q466.88-33.92 466.88-26.62ZM482.56 1.28L482.56 1.28L482.56 1.28Q468.48 1.28 468.48-11.97L468.48-11.97L468.48-11.97Q468.48-21.38 473.66-27.46L473.66-27.46L473.66-27.46Q479.17-33.92 488.70-33.92L488.70-33.92L488.70-33.92Q495.62-33.92 499.14-30.72L499.14-30.72L499.14-30.72Q502.66-27.52 502.66-20.80L502.66-20.80L502.66-20.80Q502.66-10.56 497.15-4.61L497.15-4.61L497.15-4.61Q491.78 1.28 482.56 1.28ZM484.22-26.56L484.22-26.56L484.22-26.56Q483.46-24.83 482.85-22.24L482.85-22.24L482.85-22.24Q482.24-19.65 481.47-15.55L481.47-15.55L481.47-15.55Q480.70-11.46 480.70-6.40L480.70-6.40L480.70-6.40Q480.70-4.74 481.25-3.65L481.25-3.65L481.25-3.65Q481.79-2.56 483.26-2.56L483.26-2.56L483.26-2.56Q484.74-2.56 485.66-3.26L485.66-3.26L485.66-3.26Q486.59-3.97 487.30-5.63L487.30-5.63L487.30-5.63Q488.58-8.58 489.60-14.05L489.60-14.05L489.60-14.05Q490.62-19.52 490.72-21.89L490.72-21.89L490.72-21.89Q490.82-24.26 490.82-26.02L490.82-26.02L490.82-26.02Q490.82-27.78 490.30-28.93L490.30-28.93L490.30-28.93Q489.79-30.08 488.35-30.08L488.35-30.08L488.35-30.08Q486.91-30.08 485.95-29.18L485.95-29.18L485.95-29.18Q484.99-28.29 484.22-26.56ZM526.98-2.69L526.98-2.69L526.98-2.69Q523.90 1.28 516.29 1.28L516.29 1.28L516.29 1.28Q512.32 1.28 509.44-1.12L509.44-1.12L509.44-1.12Q506.56-3.52 506.56-6.98L506.56-6.98L506.56-6.98Q506.56-8.90 506.75-9.86L506.75-9.86L511.04-32.64L524.03-33.92L519.36-9.22L519.36-9.22Q519.10-7.81 519.10-6.98L519.10-6.98L519.10-6.98Q519.10-3.26 521.34-3.26L521.34-3.26L521.34-3.26Q523.84-3.26 525.63-6.66L525.63-6.66L525.63-6.66Q526.21-7.74 526.46-9.15L526.46-9.15L531.01-32.64L543.62-33.92L538.88-8.96L538.88-8.96Q538.69-8 538.69-6.98L538.69-6.98L538.69-6.98Q538.69-5.95 539.26-4.83L539.26-4.83L539.26-4.83Q539.84-3.71 541.70-3.46L541.70-3.46L541.70-3.46Q541.31-1.92 539.97-0.90L539.97-0.90L539.97-0.90Q537.15 1.28 534.11 1.28L534.11 1.28L534.11 1.28Q531.07 1.28 529.28 0.19L529.28 0.19L529.28 0.19Q527.49-0.90 526.98-2.69ZM574.14 1.28L574.14 1.28L574.14 1.28Q566.40 1.28 566.40-4.74L566.40-4.74L566.40-4.74Q566.46-6.40 566.98-9.22L566.98-9.22L568.13-15.10L568.13-15.10Q569.86-23.42 569.86-25.28L569.86-25.28L569.86-25.28Q569.86-28.99 567.68-28.99L567.68-28.99L567.68-28.99Q564.03-28.99 562.11-19.46L562.11-19.46L558.34 0L545.47 1.28L552.13-32.70L562.62-33.92L561.60-27.65L561.60-27.65Q564.61-33.92 573.82-33.92L573.82-33.92L573.82-33.92Q578.30-33.92 580.19-32.03L580.19-32.03L580.19-32.03Q582.08-30.14 582.08-25.92L582.08-25.92L582.08-25.92Q582.08-21.95 580.03-12.67L580.03-12.67L580.03-12.67Q579.07-8.51 579.07-6.94L579.07-6.94L579.07-6.94Q579.07-5.38 579.94-4.48L579.94-4.48L579.94-4.48Q580.80-3.58 582.08-3.46L582.08-3.46L582.08-3.46Q581.44-1.28 579.23 0L579.23 0L579.23 0Q577.02 1.28 574.14 1.28ZM588.22-6.40L588.22-6.40L588.22-6.40Q588.22-8.13 589.12-12.48L589.12-12.48L592.51-29.76L588.74-29.76L588.99-31.68L588.99-31.68Q596.67-33.98 604.10-39.62L604.10-39.62L607.17-39.62L605.63-32.64L610.62-32.64L610.05-29.76L605.12-29.76L601.86-12.48L601.86-12.48Q601.02-8.51 601.02-7.17L601.02-7.17L601.02-7.17Q601.02-4.10 603.71-3.46L603.71-3.46L603.71-3.46Q603.07-1.28 600.77 0L600.77 0L600.77 0Q598.46 1.28 595.20 1.28L595.20 1.28L595.20 1.28Q591.94 1.28 590.08-0.77L590.08-0.77L590.08-0.77Q588.22-2.82 588.22-6.40Z" fill="#ccc"></path></g></g><style>text {
  font-size: 64px;
  font-family: Arial Black;
  dominant-baseline: central;
  text-anchor: middle;
}</style></svg>