<svg width="579.8950317382812px" height="236.02750244140626px" xmlns="http://www.w3.org/2000/svg" viewBox="-39.9475158691406 -43.01375122070313 579.8950317382812 236.02750244140626" style="background: rgba(0, 0, 0, 0);" preserveAspectRatio="xMidYMid"><defs><filter id="editing-extrusion" x="-100%" y="-100%" width="300%" height="300%"><feFlood result="color1" flood-color="#444"></feFlood><feConvolveMatrix order="8,8" divisor="1" kernelMatrix="1 0 0 0 0 0 0 0 0 1 0 0 0 0 0 0 0 0 1 0 0 0 0 0 0 0 0 1 0 0 0 0 0 0 0 0 1 0 0 0 0 0 0 0 0 1 0 0 0 0 0 0 0 0 1 0 0 0 0 0 0 0 0 1" in="SourceAlpha" result="extrude"></feConvolveMatrix><feComposite in="color1" in2="extrude" result="comp-extrude" operator="in"></feComposite><feOffset dx="4" dy="4" in="comp-extrude" result="offset-extrude"></feOffset><feMerge><feMergeNode in="offset-extrude"></feMergeNode><feMergeNode in="SourceGraphic"></feMergeNode></feMerge></filter></defs><g filter="url(#editing-extrusion)"><g transform="translate(44.91001099348068, 126)"><path d="M64.19-72.08L64.19-72.08L64.19-72.08Q53.18-72.08 45.15-75.75L45.15-75.75L40.80-53.72L67.05-53.72L67.05-53.72Q67.05-46.51 63.44-41.96L63.44-41.96L63.44-41.96Q59.84-37.40 53.31-37.40L53.31-37.40L53.31-37.40Q46.24-37.40 39.71-39.98L39.71-39.98L39.71-39.98Q38.35-40.53 38.22-40.66L38.22-40.66L30.46 0L0.82 0L18.09-89.76L78.74-89.76L78.74-89.76Q78.74-81.46 74.87-76.77L74.87-76.77L74.87-76.77Q70.99-72.08 64.19-72.08ZM107.98-7.48L107.98-7.48L107.98-7.48Q103.77 2.72 90.30 2.72L90.30 2.72L90.30 2.72Q83.37 2.72 79.02-2.04L79.02-2.04L79.02-2.04Q75.34-6.26 75.34-10.47L75.34-10.47L75.34-10.47Q75.34-21.49 80.38-42.98L80.38-42.98L85.41-69.36L113.02-72.08L104.72-29.10L104.72-29.10Q102.41-19.04 102.41-15.50L102.41-15.50L102.41-15.50Q102.41-7.75 107.98-7.48ZM87.86-88.26L87.86-88.26L87.86-88.26Q87.86-93.57 92.28-96.42L92.28-96.42L92.28-96.42Q96.70-99.28 103.09-99.28L103.09-99.28L103.09-99.28Q109.48-99.28 113.36-96.42L113.36-96.42L113.36-96.42Q117.23-93.57 117.23-88.26L117.23-88.26L117.23-88.26Q117.23-82.96 112.95-80.24L112.95-80.24L112.95-80.24Q108.66-77.52 102.27-77.52L102.27-77.52L102.27-77.52Q95.88-77.52 91.87-80.24L91.87-80.24L91.87-80.24Q87.86-82.96 87.86-88.26ZM121.72-13.60L121.72-13.60L121.72-13.60Q121.72-17.27 123.62-26.52L123.62-26.52L130.83-63.24L122.81-63.24L123.35-67.32L123.35-67.32Q139.67-72.22 155.45-84.18L155.45-84.18L161.98-84.18L158.71-69.36L169.32-69.36L168.10-63.24L157.62-63.24L150.69-26.52L150.69-26.52Q148.92-18.09 148.92-15.23L148.92-15.23L148.92-15.23Q148.92-8.70 154.63-7.34L154.63-7.34L154.63-7.34Q153.27-2.72 148.38 0L148.38 0L148.38 0Q143.48 2.72 136.54 2.72L136.54 2.72L136.54 2.72Q129.61 2.72 125.66-1.63L125.66-1.63L125.66-1.63Q121.72-5.98 121.72-13.60ZM173.67-22.03L173.67-22.03L173.67-22.03Q169.32-25.16 169.32-31.14L169.32-31.14L169.32-31.14Q169.32-34.41 170.95-37.06L170.95-37.06L170.95-37.06Q172.58-39.71 175.85-40.12L175.85-40.12L202.64-40.12L202.64-40.12Q207.13-40.12 208.49-42.84L208.49-42.84L208.49-42.84Q210.66-41.62 211.62-39.03L211.62-39.03L211.62-39.03Q212.57-36.45 212.57-33.73L212.57-33.73L212.57-33.73Q212.57-31.01 210.46-28.36L210.46-28.36L210.46-28.36Q208.35-25.70 205.22-25.43L205.22-25.43L180.34-25.43L180.34-25.43Q177.48-25.43 176.12-24.55L176.12-24.55L176.12-24.55Q174.76-23.66 173.67-22.03ZM233.51 0L217.87 0L242.49-89.76L270.91-89.76L277.17-38.49L302.46-89.76L326.26-89.76L328.71-22.58L328.71-22.58Q329.26-9.25 335.78-5.17L335.78-5.17L335.78-5.17Q334.29-2.45 329.94 0.14L329.94 0.14L329.94 0.14Q325.58 2.72 319.80 2.72L319.80 2.72L319.80 2.72Q314.02 2.72 310.62 1.09L310.62 1.09L310.62 1.09Q307.22-0.54 305.32-3.26L305.32-3.26L305.32-3.26Q301.92-8.16 301.92-17.54L301.92-17.54L301.92-59.57L275.13 0L258.26 0L248.74-61.06L233.51 0ZM396.71-22.98L396.71-22.98L396.71-22.98Q400.11-20.67 400.11-15.57L400.11-15.57L400.11-15.57Q400.11-10.47 397.53-7.21L397.53-7.21L397.53-7.21Q394.94-3.94 390.73-1.77L390.73-1.77L390.73-1.77Q382.02 2.72 372.64 2.72L372.64 2.72L372.64 2.72Q363.26 2.72 357.75 0.68L357.75 0.68L357.75 0.68Q352.24-1.36 348.57-5.17L348.57-5.17L348.57-5.17Q341.36-12.38 341.36-25.57L341.36-25.57L341.36-25.57Q341.36-46.10 352.51-58.62L352.51-58.62L352.51-58.62Q364.48-72.08 385.29-72.08L385.29-72.08L385.29-72.08Q398.21-72.08 404.60-66.64L404.60-66.64L404.60-66.64Q409.36-62.56 409.36-55.90L409.36-55.90L409.36-55.90Q409.36-31.96 368.02-31.96L368.02-31.96L368.02-31.96Q367.47-28.42 367.47-25.43L367.47-25.43L367.47-25.43Q367.47-19.18 370.26-16.80L370.26-16.80L370.26-16.80Q373.05-14.42 378.22-14.42L378.22-14.42L378.22-14.42Q383.38-14.42 388.89-16.80L388.89-16.80L388.89-16.80Q394.40-19.18 396.71-22.98ZM368.97-37.81L368.97-37.81L368.97-37.81Q378.62-37.81 384.20-43.79L384.20-43.79L384.20-43.79Q389.78-49.50 389.78-58.62L389.78-58.62L389.78-58.62Q389.78-61.74 388.62-63.44L388.62-63.44L388.62-63.44Q387.46-65.14 385.15-65.14L385.15-65.14L385.15-65.14Q382.84-65.14 380.87-64.26L380.87-64.26L380.87-64.26Q378.90-63.38 376.86-60.38L376.86-60.38L376.86-60.38Q371.82-53.58 368.97-37.81Z" fill="#ccc"></path></g></g><style>text {
  font-size: 64px;
  font-family: Arial Black;
  dominant-baseline: central;
  text-anchor: middle;
}</style></svg>