<svg width="432.6962158203125px" height="245.6322265625px" xmlns="http://www.w3.org/2000/svg" viewBox="33.651892089843756 -47.81611328125 432.6962158203125 245.6322265625" style="background: none;" preserveAspectRatio="xMidYMid"><defs><linearGradient id="editing-glowing-gradient" x1="0.8146601955249185" x2="0.18533980447508147" y1="0.8885729807284856" y2="0.11142701927151444"><stop offset="0" stop-color="#67ff43"></stop><stop offset="1" stop-color="#90ffff"></stop></linearGradient><filter id="editing-glowing" x="-100%" y="-100%" width="300%" height="300%"><feGaussianBlur in="SourceGraphic" result="blur" stdDeviation="10"></feGaussianBlur><feMerge><feMergeNode in="blur"></feMergeNode><feMergeNode in="SourceGraphic"></feMergeNode></feMerge></filter></defs><g filter="url(#editing-glowing)"><g transform="translate(101.20848274230957, 128.36867904663086)"><path d="M63.51-94.94L63.51-94.94L33.35-94.94L23.08-54.23L49.42-54.23L49.42-54.23Q50.76-54.23 51.26-53.21L51.26-53.21L51.26-53.21Q51.76-52.18 51.47-50.91L51.47-50.91L50.48-47.29L50.48-47.29Q49.77-44.25 46.09-44.25L46.09-44.25L20.46-44.25L9.98-3.19L9.98-3.19Q9.13 0 5.66 0L5.66 0L1.49 0L1.49 0Q-0.28 0-1.10-1.31L-1.10-1.31L-1.10-1.31Q-1.91-2.62-1.42-4.46L-1.42-4.46L21.59-94.94L15.93-94.94L15.93-94.94Q13.81-94.94 13.28-95.62L13.28-95.62L13.28-95.62Q12.74-96.29 13.38-98.77L13.38-98.77L14.23-102.09L14.23-102.09Q14.80-103.94 15.43-104.47L15.43-104.47L15.43-104.47Q16.07-105.00 18.13-105.00L18.13-105.00L65.42-105.00L65.42-105.00Q67.40-105.00 68.07-104.25L68.07-104.25L68.07-104.25Q68.75-103.51 68.18-101.39L68.18-101.39L67.12-97.71L67.12-97.71Q66.41-94.94 63.51-94.94ZM81.28-95.72L81.28-95.72L82.62-95.72L82.62-95.72Q85.03-95.72 87.08-93.53L87.08-93.53L87.08-93.53Q89.14-91.33 89.14-88.50L89.14-88.50L89.14-88.50Q89.14-85.67 87.01-83.65L87.01-83.65L87.01-83.65Q84.89-81.63 81.70-81.63L81.70-81.63L80.57-81.63L80.57-81.63Q78.09-81.63 76.15-83.72L76.15-83.72L76.15-83.72Q74.20-85.81 74.20-88.64L74.20-88.64L74.20-88.64Q74.20-91.47 76.22-93.60L76.22-93.60L76.22-93.60Q78.23-95.72 81.28-95.72ZM83.90-70.59L83.90-70.59L66.34-3.19L66.34-3.19Q65.49 0 62.02 0L62.02 0L57.77 0L57.77 0Q53.74 0 54.59-3.33L54.59-3.33L72.29-70.73L72.29-70.73Q73.00-73.63 76.32-73.63L76.32-73.63L81.14-73.63L81.14-73.63Q83.05-73.63 83.69-73.00L83.69-73.00L83.69-73.00Q84.32-72.36 83.90-70.59ZM120.57-96.01L120.57-96.01L114.91-73.63L122.41-73.63L122.41-73.63Q125.60-73.63 124.61-70.45L124.61-70.45L123.62-66.69L123.62-66.69Q122.56-63.51 119.79-63.51L119.79-63.51L112.29-63.51L96.93-3.19L96.93-3.19Q96.08 0 92.54 0L92.54 0L89.85 0L89.85 0Q87.51 0 86.55-1.31L86.55-1.31L86.55-1.31Q85.60-2.62 86.02-4.67L86.02-4.67L101.10-63.51L95.30-63.51L95.30-63.51Q92.40-63.51 93.46-66.98L93.46-66.98L94.59-70.87L94.59-70.87Q95.44-73.63 97.78-73.63L97.78-73.63L103.58-73.63L109.39-96.15L109.39-96.15Q110.24-99.33 113.71-99.33L113.71-99.33L117.39-99.33L117.39-99.33Q121.42-99.33 120.57-96.01ZM126.52-52.04L126.52-52.04L162.77-52.04L162.77-52.04Q164.05-52.04 164.79-51.12L164.79-51.12L164.79-51.12Q165.53-50.20 165.25-48.71L165.25-48.71L164.47-45.10L164.47-45.10Q163.90-42.06 160.72-42.06L160.72-42.06L125.95-42.06L125.95-42.06Q122.41-42.06 123.33-45.38L123.33-45.38L124.61-50.48L124.61-50.48Q125.03-52.04 126.52-52.04ZM169.92-4.46L194.77-101.81L194.77-101.81Q195.62-104.86 198.95-105.00L198.95-105.00L203.62-105.00L203.62-105.00Q206.67-105.00 207.09-101.67L207.09-101.67L207.09-101.67Q209.71-74.41 210.00-62.52L210.00-62.52L210.00-62.52Q210.28-50.62 209.57-40.29L209.57-40.29L246.67-102.24L246.67-102.24Q248.23-105.00 250.99-105.00L250.99-105.00L255.52-105.00L255.52-105.00Q257.36-105.00 258.10-103.62L258.10-103.62L258.10-103.62Q258.85-102.24 258.42-100.47L258.42-100.47L233.64-3.19L233.64-3.19Q232.72 0 229.25 0L229.25 0L225.08 0L225.08 0Q223.31 0 222.53-1.31L222.53-1.31L222.53-1.31Q221.75-2.62 222.17-4.46L222.17-4.46L238.81-69.74L238.81-69.74Q232.72-59.19 224.33-46.06L224.33-46.06L224.33-46.06Q215.94-32.92 213.32-28.75L213.32-28.75L213.32-28.75Q209.71-22.80 206.03-23.08L206.03-23.08L203.13-23.22L203.13-23.22Q199.09-23.51 199.52-29.03L199.52-29.03L199.52-29.03Q200.58-44.82 198.81-71.23L198.81-71.23L181.39-3.19L181.39-3.19Q180.54 0 177.07 0L177.07 0L172.82 0L172.82 0Q171.13 0 170.31-1.31L170.31-1.31L170.31-1.31Q169.50-2.62 169.92-4.46L169.92-4.46ZM263.10-20.04L263.10-20.04L263.10-20.04Q261.11-9.42 267.06-8.28L267.06-8.28L267.06-8.28Q272.37-10.27 280.23-19.12L280.23-19.12L280.23-19.12Q281.57-20.32 283.13-19.40L283.13-19.40L285.89-17.70L285.89-17.70Q287.81-16.21 287.17-14.51L287.17-14.51L287.17-14.51Q284.41-9.27 276.97-3.40L276.97-3.40L276.97-3.40Q269.54 2.48 265.01 1.63L265.01 1.63L265.01 1.63Q254.74-0.99 252.97-9.13L252.97-9.13L252.97-9.13Q250.92-20.04 256.58-39.08L256.58-39.08L256.58-39.08Q262.25-58.13 272.37-67.83L272.37-67.83L272.37-67.83Q275.91-71.08 281.19-72.68L281.19-72.68L281.19-72.68Q286.46-74.27 292.34-71.79L292.34-71.79L292.34-71.79Q298.21-69.31 298.14-57.63L298.14-57.63L298.14-57.63Q298.07-45.95 287.91-35.58L287.91-35.58L287.91-35.58Q277.75-25.21 263.10-20.04ZM264.87-29.45L264.87-29.45L264.87-29.45Q271.66-32.36 276.51-36.25L276.51-36.25L276.51-36.25Q281.36-40.14 284.51-45.74L284.51-45.74L284.51-45.74Q287.66-51.33 287.66-57.21L287.66-57.21L287.66-57.21Q287.66-63.08 284.27-63.08L284.27-63.08L284.27-63.08Q277.61-63.08 272.62-52.22L272.62-52.22L272.62-52.22Q267.63-41.35 264.87-29.45Z" fill="url(#editing-glowing-gradient)"></path></g></g><style>text {
  font-size: 64px;
  font-family: Arial Black;
  dominant-baseline: central;
  text-anchor: middle;
}</style></svg>