<svg width="597.5749999999999px" height="122.021240234375px" xmlns="http://www.w3.org/2000/svg" viewBox="-48.787499999999966 13.9893798828125 597.5749999999999 122.021240234375" style="background: none;" preserveAspectRatio="xMidYMid"><defs><linearGradient id="editing-glowing-gradient" x1="0.8146601955249185" x2="0.18533980447508147" y1="0.8885729807284856" y2="0.11142701927151444"><stop offset="0" stop-color="#67ff43"></stop><stop offset="1" stop-color="#90ffff"></stop></linearGradient><filter id="editing-glowing" x="-100%" y="-100%" width="300%" height="300%"><feGaussianBlur in="SourceGraphic" result="blur" stdDeviation="10"></feGaussianBlur><feMerge><feMergeNode in="blur"></feMergeNode><feMergeNode in="SourceGraphic"></feMergeNode></feMerge></filter></defs><g filter="url(#editing-glowing)"><g transform="translate(37.2649872303009, 98.9921875)"><path d="M2.05-15.62L2.05-15.62L2.05-15.62Q2.05-27.71 8.32-35.33L8.32-35.33L8.32-35.33Q14.98-43.58 26.56-43.58L26.56-43.58L26.56-43.58Q34.94-43.58 39.17-39.52L39.17-39.52L39.17-39.52Q43.39-35.46 43.39-26.88L43.39-26.88L43.39-26.88Q43.39-13.82 36.74-6.21L36.74-6.21L36.74-6.21Q30.14 1.28 19.07 1.28L19.07 1.28L19.07 1.28Q10.43 1.28 6.24-3.04L6.24-3.04L6.24-3.04Q2.05-7.36 2.05-15.62ZM18.88-28.86L18.88-28.86L18.88-28.86Q16-17.34 16-8.26L16-8.26L16-8.26Q16-6.08 16.74-4.67L16.74-4.67L16.74-4.67Q17.47-3.26 19.42-3.26L19.42-3.26L19.42-3.26Q21.38-3.26 22.59-4.19L22.59-4.19L22.59-4.19Q23.81-5.12 24.77-7.23L24.77-7.23L24.77-7.23Q26.30-10.69 27.74-18.02L27.74-18.02L27.74-18.02Q29.18-25.34 29.31-28.38L29.31-28.38L29.31-28.38Q29.44-31.42 29.44-33.73L29.44-33.73L29.44-33.73Q29.44-36.03 28.74-37.50L28.74-37.50L28.74-37.50Q28.03-38.98 26.14-38.98L26.14-38.98L26.14-38.98Q24.26-38.98 22.98-37.82L22.98-37.82L22.98-37.82Q20.61-35.65 18.88-28.86ZM73.60 1.28L73.60 1.28L73.60 1.28Q65.86 1.28 65.86-4.74L65.86-4.74L65.86-4.74Q65.92-6.40 66.43-9.22L66.43-9.22L67.58-15.10L67.58-15.10Q69.31-23.42 69.31-25.28L69.31-25.28L69.31-25.28Q69.31-28.99 67.14-28.99L67.14-28.99L67.14-28.99Q63.49-28.99 61.57-19.46L61.57-19.46L57.79 0L44.93 1.28L51.58-32.70L62.08-33.92L61.06-27.65L61.06-27.65Q64.06-33.92 73.28-33.92L73.28-33.92L73.28-33.92Q77.76-33.92 79.65-32.03L79.65-32.03L79.65-32.03Q81.54-30.14 81.54-25.92L81.54-25.92L81.54-25.92Q81.54-21.95 79.49-12.67L79.49-12.67L79.49-12.67Q78.53-8.51 78.53-6.94L78.53-6.94L78.53-6.94Q78.53-5.38 79.39-4.48L79.39-4.48L79.39-4.48Q80.26-3.58 81.54-3.46L81.54-3.46L81.54-3.46Q80.90-1.28 78.69 0L78.69 0L78.69 0Q76.48 1.28 73.60 1.28ZM101.95-3.52L101.95-3.52L101.95-3.52Q99.97 1.28 93.63 1.28L93.63 1.28L93.63 1.28Q90.43 1.28 88.38-0.96L88.38-0.96L88.38-0.96Q86.72-2.82 86.72-4.93L86.72-4.93L86.72-4.93Q86.72-9.73 88.96-20.22L88.96-20.22L93.63-44.80L106.62-46.08L100.42-13.70L100.42-13.70Q99.33-8.96 99.33-7.30L99.33-7.30L99.33-7.30Q99.33-3.65 101.95-3.52ZM122.75-3.52L122.75-3.52L122.75-3.52Q120.77 1.28 114.43 1.28L114.43 1.28L114.43 1.28Q111.17 1.28 109.12-0.96L109.12-0.96L109.12-0.96Q107.39-2.94 107.39-4.93L107.39-4.93L107.39-4.93Q107.39-10.11 109.76-20.22L109.76-20.22L112.13-32.64L125.12-33.92L121.22-13.70L121.22-13.70Q120.13-8.96 120.13-7.30L120.13-7.30L120.13-7.30Q120.13-3.65 122.75-3.52ZM113.28-41.54L113.28-41.54L113.28-41.54Q113.28-44.03 115.36-45.38L115.36-45.38L115.36-45.38Q117.44-46.72 120.45-46.72L120.45-46.72L120.45-46.72Q123.46-46.72 125.28-45.38L125.28-45.38L125.28-45.38Q127.10-44.03 127.10-41.54L127.10-41.54L127.10-41.54Q127.10-39.04 125.09-37.76L125.09-37.76L125.09-37.76Q123.07-36.48 120.06-36.48L120.06-36.48L120.06-36.48Q117.06-36.48 115.17-37.76L115.17-37.76L115.17-37.76Q113.28-39.04 113.28-41.54ZM155.26 1.28L155.26 1.28L155.26 1.28Q147.52 1.28 147.52-4.74L147.52-4.74L147.52-4.74Q147.58-6.40 148.10-9.22L148.10-9.22L149.25-15.10L149.25-15.10Q150.98-23.42 150.98-25.28L150.98-25.28L150.98-25.28Q150.98-28.99 148.80-28.99L148.80-28.99L148.80-28.99Q145.15-28.99 143.23-19.46L143.23-19.46L139.46 0L126.59 1.28L133.25-32.70L143.74-33.92L142.72-27.65L142.72-27.65Q145.73-33.92 154.94-33.92L154.94-33.92L154.94-33.92Q159.42-33.92 161.31-32.03L161.31-32.03L161.31-32.03Q163.20-30.14 163.20-25.92L163.20-25.92L163.20-25.92Q163.20-21.95 161.15-12.67L161.15-12.67L161.15-12.67Q160.19-8.51 160.19-6.94L160.19-6.94L160.19-6.94Q160.19-5.38 161.06-4.48L161.06-4.48L161.06-4.48Q161.92-3.58 163.20-3.46L163.20-3.46L163.20-3.46Q162.56-1.28 160.35 0L160.35 0L160.35 0Q158.14 1.28 155.26 1.28ZM194.24-10.82L194.24-10.82L194.24-10.82Q195.84-9.73 195.84-7.33L195.84-7.33L195.84-7.33Q195.84-4.93 194.62-3.39L194.62-3.39L194.62-3.39Q193.41-1.86 191.42-0.83L191.42-0.83L191.42-0.83Q187.33 1.28 182.91 1.28L182.91 1.28L182.91 1.28Q178.50 1.28 175.90 0.32L175.90 0.32L175.90 0.32Q173.31-0.64 171.58-2.43L171.58-2.43L171.58-2.43Q168.19-5.82 168.19-12.03L168.19-12.03L168.19-12.03Q168.19-21.70 173.44-27.58L173.44-27.58L173.44-27.58Q179.07-33.92 188.86-33.92L188.86-33.92L188.86-33.92Q194.94-33.92 197.95-31.36L197.95-31.36L197.95-31.36Q200.19-29.44 200.19-26.30L200.19-26.30L200.19-26.30Q200.19-15.04 180.74-15.04L180.74-15.04L180.74-15.04Q180.48-13.38 180.48-11.97L180.48-11.97L180.48-11.97Q180.48-9.02 181.79-7.90L181.79-7.90L181.79-7.90Q183.10-6.78 185.54-6.78L185.54-6.78L185.54-6.78Q187.97-6.78 190.56-7.90L190.56-7.90L190.56-7.90Q193.15-9.02 194.24-10.82ZM181.18-17.79L181.18-17.79L181.18-17.79Q185.73-17.79 188.35-20.61L188.35-20.61L188.35-20.61Q190.98-23.30 190.98-27.58L190.98-27.58L190.98-27.58Q190.98-29.06 190.43-29.86L190.43-29.86L190.43-29.86Q189.89-30.66 188.80-30.66L188.80-30.66L188.80-30.66Q187.71-30.66 186.78-30.24L186.78-30.24L186.78-30.24Q185.86-29.82 184.90-28.42L184.90-28.42L184.90-28.42Q182.53-25.22 181.18-17.79ZM240.51-37.12L240.51-37.12L240.51-37.12Q241.41-38.66 241.41-40.32L241.41-40.32L241.41-40.32Q241.41-43.26 239.62-43.26L239.62-43.26L239.62-43.26Q236.86-43.26 235.71-37.63L235.71-37.63L234.75-32.64L240.58-32.64L240.19-29.76L234.18-29.76L228.42 0L215.49 1.28L221.63-29.76L217.09-29.76L217.66-32.64L222.14-32.64L223.49-37.70L223.49-37.70Q224.64-42.37 229.57-44.54L229.57-44.54L229.57-44.54Q233.15-46.08 239.17-46.08L239.17-46.08L239.17-46.08Q245.18-46.08 247.87-44.54L247.87-44.54L247.87-44.54Q250.56-43.01 250.56-40.96L250.56-40.96L250.56-40.96Q250.56-38.91 248.96-37.63L248.96-37.63L248.96-37.63Q247.36-36.35 245.57-36.35L245.57-36.35L245.57-36.35Q242.05-36.35 240.51-37.12ZM260.86-3.52L260.86-3.52L260.86-3.52Q258.88 1.28 252.54 1.28L252.54 1.28L252.54 1.28Q249.28 1.28 247.23-0.96L247.23-0.96L247.23-0.96Q245.50-2.94 245.50-4.93L245.50-4.93L245.50-4.93Q245.50-10.11 247.87-20.22L247.87-20.22L250.24-32.64L263.23-33.92L259.33-13.70L259.33-13.70Q258.24-8.96 258.24-7.30L258.24-7.30L258.24-7.30Q258.24-3.65 260.86-3.52ZM251.39-41.54L251.39-41.54L251.39-41.54Q251.39-44.03 253.47-45.38L253.47-45.38L253.47-45.38Q255.55-46.72 258.56-46.72L258.56-46.72L258.56-46.72Q261.57-46.72 263.39-45.38L263.39-45.38L263.39-45.38Q265.22-44.03 265.22-41.54L265.22-41.54L265.22-41.54Q265.22-39.04 263.20-37.76L263.20-37.76L263.20-37.76Q261.18-36.48 258.18-36.48L258.18-36.48L258.18-36.48Q255.17-36.48 253.28-37.76L253.28-37.76L253.28-37.76Q251.39-39.04 251.39-41.54ZM267.33-6.40L267.33-6.40L267.33-6.40Q267.33-8.13 268.22-12.48L268.22-12.48L271.62-29.76L267.84-29.76L268.10-31.68L268.10-31.68Q275.78-33.98 283.20-39.62L283.20-39.62L286.27-39.62L284.74-32.64L289.73-32.64L289.15-29.76L284.22-29.76L280.96-12.48L280.96-12.48Q280.13-8.51 280.13-7.17L280.13-7.17L280.13-7.17Q280.13-4.10 282.82-3.46L282.82-3.46L282.82-3.46Q282.18-1.28 279.87 0L279.87 0L279.87 0Q277.57 1.28 274.30 1.28L274.30 1.28L274.30 1.28Q271.04 1.28 269.18-0.77L269.18-0.77L269.18-0.77Q267.33-2.82 267.33-6.40ZM316.48 1.28L316.48 1.28L316.48 1.28Q308.74 1.28 308.74-4.74L308.74-4.74L308.74-4.74Q308.80-6.40 309.31-9.22L309.31-9.22L310.46-15.10L310.46-15.10Q312.19-23.42 312.19-25.28L312.19-25.28L312.19-25.28Q312.19-28.99 310.02-28.99L310.02-28.99L310.02-28.99Q306.37-28.99 304.45-19.46L304.45-19.46L300.67 0L287.81 1.28L294.46-32.70L304.96-33.92L303.94-27.65L303.94-27.65Q306.94-33.92 316.16-33.92L316.16-33.92L316.16-33.92Q320.64-33.92 322.53-32.03L322.53-32.03L322.53-32.03Q324.42-30.14 324.42-25.92L324.42-25.92L324.42-25.92Q324.42-21.95 322.37-12.67L322.37-12.67L322.37-12.67Q321.41-8.51 321.41-6.94L321.41-6.94L321.41-6.94Q321.41-5.38 322.27-4.48L322.27-4.48L322.27-4.48Q323.14-3.58 324.42-3.46L324.42-3.46L324.42-3.46Q323.78-1.28 321.57 0L321.57 0L321.57 0Q319.36 1.28 316.48 1.28ZM355.46-10.82L355.46-10.82L355.46-10.82Q357.06-9.73 357.06-7.33L357.06-7.33L357.06-7.33Q357.06-4.93 355.84-3.39L355.84-3.39L355.84-3.39Q354.62-1.86 352.64-0.83L352.64-0.83L352.64-0.83Q348.54 1.28 344.13 1.28L344.13 1.28L344.13 1.28Q339.71 1.28 337.12 0.32L337.12 0.32L337.12 0.32Q334.53-0.64 332.80-2.43L332.80-2.43L332.80-2.43Q329.41-5.82 329.41-12.03L329.41-12.03L329.41-12.03Q329.41-21.70 334.66-27.58L334.66-27.58L334.66-27.58Q340.29-33.92 350.08-33.92L350.08-33.92L350.08-33.92Q356.16-33.92 359.17-31.36L359.17-31.36L359.17-31.36Q361.41-29.44 361.41-26.30L361.41-26.30L361.41-26.30Q361.41-15.04 341.95-15.04L341.95-15.04L341.95-15.04Q341.70-13.38 341.70-11.97L341.70-11.97L341.70-11.97Q341.70-9.02 343.01-7.90L343.01-7.90L343.01-7.90Q344.32-6.78 346.75-6.78L346.75-6.78L346.75-6.78Q349.18-6.78 351.78-7.90L351.78-7.90L351.78-7.90Q354.37-9.02 355.46-10.82ZM342.40-17.79L342.40-17.79L342.40-17.79Q346.94-17.79 349.57-20.61L349.57-20.61L349.57-20.61Q352.19-23.30 352.19-27.58L352.19-27.58L352.19-27.58Q352.19-29.06 351.65-29.86L351.65-29.86L351.65-29.86Q351.10-30.66 350.02-30.66L350.02-30.66L350.02-30.66Q348.93-30.66 348-30.24L348-30.24L348-30.24Q347.07-29.82 346.11-28.42L346.11-28.42L346.11-28.42Q343.74-25.22 342.40-17.79ZM382.72-22.46L382.72-22.46L382.72-22.46Q383.62-24.83 383.62-26.88L383.62-26.88L383.62-26.88Q383.62-30.66 380.54-30.66L380.54-30.66L380.54-30.66Q378.94-30.66 377.63-29.22L377.63-29.22L377.63-29.22Q376.32-27.78 376.32-25.98L376.32-25.98L376.32-25.98Q376.32-24.70 377.34-23.68L377.34-23.68L377.34-23.68Q378.82-22.27 382.59-19.97L382.59-19.97L382.59-19.97Q386.37-17.66 387.81-15.78L387.81-15.78L387.81-15.78Q389.25-13.89 389.25-11.30L389.25-11.30L389.25-11.30Q389.25-8.70 388-6.34L388-6.34L388-6.34Q386.75-3.97 384.51-2.30L384.51-2.30L384.51-2.30Q379.71 1.28 372.03 1.28L372.03 1.28L372.03 1.28Q367.87 1.28 364.67-0.90L364.67-0.90L364.67-0.90Q361.47-3.01 361.47-5.50L361.47-5.50L361.47-5.50Q361.47-8 363.30-9.47L363.30-9.47L363.30-9.47Q365.12-10.94 367.81-10.94L367.81-10.94L367.81-10.94Q370.50-10.94 372.16-9.92L372.16-9.92L372.16-9.92Q371.33-7.81 371.33-6.40L371.33-6.40L371.33-6.40Q371.33-2.18 374.91-2.18L374.91-2.18L374.91-2.18Q376.45-2.18 377.47-3.14L377.47-3.14L377.47-3.14Q378.50-4.10 378.50-5.76L378.50-5.76L378.50-5.76Q378.50-9.02 372.99-12.48L372.99-12.48L372.99-12.48Q368.51-15.42 367.49-16.58L367.49-16.58L367.49-16.58Q365.76-18.62 365.76-21.18L365.76-21.18L365.76-21.18Q365.76-23.74 366.98-26.18L366.98-26.18L366.98-26.18Q368.19-28.61 370.43-30.34L370.43-30.34L370.43-30.34Q375.10-33.92 383.23-33.92L383.23-33.92L383.23-33.92Q387.39-33.92 389.86-32.26L389.86-32.26L389.86-32.26Q392.32-30.59 392.32-27.78L392.32-27.78L392.32-27.78Q392.32-24.96 390.62-23.36L390.62-23.36L390.62-23.36Q388.93-21.76 385.86-21.76L385.86-21.76L385.86-21.76Q383.74-21.76 382.72-22.46ZM413.82-22.46L413.82-22.46L413.82-22.46Q414.72-24.83 414.72-26.88L414.72-26.88L414.72-26.88Q414.72-30.66 411.65-30.66L411.65-30.66L411.65-30.66Q410.05-30.66 408.74-29.22L408.74-29.22L408.74-29.22Q407.42-27.78 407.42-25.98L407.42-25.98L407.42-25.98Q407.42-24.70 408.45-23.68L408.45-23.68L408.45-23.68Q409.92-22.27 413.70-19.97L413.70-19.97L413.70-19.97Q417.47-17.66 418.91-15.78L418.91-15.78L418.91-15.78Q420.35-13.89 420.35-11.30L420.35-11.30L420.35-11.30Q420.35-8.70 419.10-6.34L419.10-6.34L419.10-6.34Q417.86-3.97 415.62-2.30L415.62-2.30L415.62-2.30Q410.82 1.28 403.14 1.28L403.14 1.28L403.14 1.28Q398.98 1.28 395.78-0.90L395.78-0.90L395.78-0.90Q392.58-3.01 392.58-5.50L392.58-5.50L392.58-5.50Q392.58-8 394.40-9.47L394.40-9.47L394.40-9.47Q396.22-10.94 398.91-10.94L398.91-10.94L398.91-10.94Q401.60-10.94 403.26-9.92L403.26-9.92L403.26-9.92Q402.43-7.81 402.43-6.40L402.43-6.40L402.43-6.40Q402.43-2.18 406.02-2.18L406.02-2.18L406.02-2.18Q407.55-2.18 408.58-3.14L408.58-3.14L408.58-3.14Q409.60-4.10 409.60-5.76L409.60-5.76L409.60-5.76Q409.60-9.02 404.10-12.48L404.10-12.48L404.10-12.48Q399.62-15.42 398.59-16.58L398.59-16.58L398.59-16.58Q396.86-18.62 396.86-21.18L396.86-21.18L396.86-21.18Q396.86-23.74 398.08-26.18L398.08-26.18L398.08-26.18Q399.30-28.61 401.54-30.34L401.54-30.34L401.54-30.34Q406.21-33.92 414.34-33.92L414.34-33.92L414.34-33.92Q418.50-33.92 420.96-32.26L420.96-32.26L420.96-32.26Q423.42-30.59 423.42-27.78L423.42-27.78L423.42-27.78Q423.42-24.96 421.73-23.36L421.73-23.36L421.73-23.36Q420.03-21.76 416.96-21.76L416.96-21.76L416.96-21.76Q414.85-21.76 413.82-22.46Z" fill="url(#editing-glowing-gradient)"></path></g></g><style>text {
  font-size: 64px;
  font-family: Arial Black;
  dominant-baseline: central;
  text-anchor: middle;
}</style></svg>