<svg width="308.3624755859375px" height="122.021240234375px" xmlns="http://www.w3.org/2000/svg" viewBox="95.81876220703126 13.9893798828125 308.3624755859375 122.021240234375" style="background: none;" preserveAspectRatio="xMidYMid"><defs><filter id="editing-hole" x="-100%" y="-100%" width="300%" height="300%"><feFlood flood-color="#000000" result="black"></feFlood><feMorphology operator="dilate" radius="2" in="SourceGraphic" result="erode"></feMorphology><feGaussianBlur in="erode" stdDeviation="4" result="blur"></feGaussianBlur><feOffset in="blur" dx="2" dy="2" result="offset"></feOffset><feComposite operator="atop" in="offset" in2="black" result="merge"></feComposite><feComposite operator="in" in="merge" in2="SourceGraphic" result="inner-shadow"></feComposite></filter></defs><g filter="url(#editing-hole)"><g transform="translate(145.9474993944168, 104.75218772888184)"><path d="M26.05-29.57L26.05-29.57L26.05-29.57Q27.01-31.49 27.01-33.28L27.01-33.28L27.01-33.28Q27.01-35.07 26.82-36.06L26.82-36.06L26.82-36.06Q26.62-37.06 26.18-37.82L26.18-37.82L26.18-37.82Q25.22-39.49 23.30-39.49L23.30-39.49L23.30-39.49Q20.93-39.49 19.01-37.76L19.01-37.76L19.01-37.76Q16.96-35.97 16.96-33.15L16.96-33.15L16.96-33.15Q16.96-31.36 18.21-29.98L18.21-29.98L18.21-29.98Q19.46-28.61 21.38-27.33L21.38-27.33L21.38-27.33Q23.30-26.05 25.47-24.77L25.47-24.77L25.47-24.77Q27.65-23.49 29.57-21.95L29.57-21.95L29.57-21.95Q33.98-18.43 33.98-13.70L33.98-13.70L33.98-13.70Q33.98-10.50 32.29-7.78L32.29-7.78L32.29-7.78Q30.59-5.06 27.78-3.07L27.78-3.07L27.78-3.07Q21.63 1.28 13.50 1.28L13.50 1.28L13.50 1.28Q6.91 1.28 3.52-0.86L3.52-0.86L3.52-0.86Q0.13-3.01 0.13-6.27L0.13-6.27L0.13-6.27Q0.13-12.10 4.67-13.57L4.67-13.57L4.67-13.57Q5.95-14.02 7.90-14.02L7.90-14.02L7.90-14.02Q9.86-14.02 12.10-13.18L12.10-13.18L12.10-13.18Q11.07-10.56 11.07-8.19L11.07-8.19L11.07-8.19Q11.07-3.07 14.72-3.07L14.72-3.07L14.72-3.07Q17.09-3.07 19.04-4.80L19.04-4.80L19.04-4.80Q20.99-6.53 20.99-8.48L20.99-8.48L20.99-8.48Q20.99-10.43 19.74-11.84L19.74-11.84L19.74-11.84Q18.50-13.25 16.64-14.37L16.64-14.37L16.64-14.37Q14.78-15.49 12.64-16.58L12.64-16.58L12.64-16.58Q10.50-17.66 8.64-19.20L8.64-19.20L8.64-19.20Q4.29-22.72 4.29-28.35L4.29-28.35L4.29-28.35Q4.29-32 6.08-34.85L6.08-34.85L6.08-34.85Q7.87-37.70 10.75-39.62L10.75-39.62L10.75-39.62Q16.51-43.52 23.58-43.52L23.58-43.52L23.58-43.52Q30.66-43.52 34.08-41.41L34.08-41.41L34.08-41.41Q37.50-39.30 37.50-35.71L37.50-35.71L37.50-35.71Q37.50-32.58 35.07-30.59L35.07-30.59L35.07-30.59Q32.96-28.93 30.40-28.93L30.40-28.93L30.40-28.93Q27.84-28.93 26.05-29.57ZM54.21-3.52L54.21-3.52L54.21-3.52Q52.22 1.28 45.89 1.28L45.89 1.28L45.89 1.28Q42.62 1.28 40.58-0.96L40.58-0.96L40.58-0.96Q38.85-2.94 38.85-4.93L38.85-4.93L38.85-4.93Q38.85-10.11 41.22-20.22L41.22-20.22L43.58-32.64L56.58-33.92L52.67-13.70L52.67-13.70Q51.58-8.96 51.58-7.30L51.58-7.30L51.58-7.30Q51.58-3.65 54.21-3.52ZM44.74-41.54L44.74-41.54L44.74-41.54Q44.74-44.03 46.82-45.38L46.82-45.38L46.82-45.38Q48.90-46.72 51.90-46.72L51.90-46.72L51.90-46.72Q54.91-46.72 56.74-45.38L56.74-45.38L56.74-45.38Q58.56-44.03 58.56-41.54L58.56-41.54L58.56-41.54Q58.56-39.04 56.54-37.76L56.54-37.76L56.54-37.76Q54.53-36.48 51.52-36.48L51.52-36.48L51.52-36.48Q48.51-36.48 46.62-37.76L46.62-37.76L46.62-37.76Q44.74-39.04 44.74-41.54ZM64.19-26.75L64.19-26.75L64.19-26.75Q66.37-29.82 69.66-31.87L69.66-31.87L69.66-31.87Q72.96-33.92 76.99-33.92L76.99-33.92L76.99-33.92Q81.02-33.92 82.94-32.64L82.94-32.64L95.49-33.92L91.14-9.34L91.14-9.34Q88.90 3.20 84.16 8.13L84.16 8.13L84.16 8.13Q79.62 12.80 70.78 12.80L70.78 12.80L70.78 12.80Q64.06 12.80 60.22 10.69L60.22 10.69L60.22 10.69Q56.38 8.58 56.38 5.06L56.38 5.06L56.38 5.06Q56.38 2.43 58.37 0.93L58.37 0.93L58.37 0.93Q60.35-0.58 63.42-0.58L63.42-0.58L63.42-0.58Q66.11-0.58 68.16 0.64L68.16 0.64L68.16 0.64Q69.38 1.28 69.95 2.18L69.95 2.18L69.95 2.18Q68.48 3.46 68.48 5.57L68.48 5.57L68.48 5.57Q68.48 8.32 71.04 8.32L71.04 8.32L71.04 8.32Q75.33 8.32 77.76-1.79L77.76-1.79L77.76-1.79Q78.46-4.54 79.04-7.30L79.04-7.30L79.04-7.30Q76.16-3.78 69.63-3.78L69.63-3.78L69.63-3.78Q65.09-3.78 62.46-5.95L62.46-5.95L62.46-5.95Q59.84-8.13 59.84-13.25L59.84-13.25L59.84-13.25Q59.84-16.45 60.93-20.06L60.93-20.06L60.93-20.06Q62.02-23.68 64.19-26.75ZM72.51-13.06L72.51-13.06L72.51-13.06Q72.51-8.70 74.75-8.70L74.75-8.70L74.75-8.70Q76.29-8.70 77.76-10.37L77.76-10.37L77.76-10.37Q78.91-11.71 79.36-13.70L79.36-13.70L82.62-30.14L82.62-30.14Q82.30-30.21 81.98-30.34L81.98-30.34L81.98-30.34Q81.34-30.59 80.51-30.59L80.51-30.59L80.51-30.59Q76.61-30.59 74.30-24.19L74.30-24.19L74.30-24.19Q72.51-19.20 72.51-13.06ZM125.06 1.28L125.06 1.28L125.06 1.28Q117.31 1.28 117.31-4.74L117.31-4.74L117.31-4.74Q117.38-6.40 117.89-9.22L117.89-9.22L119.04-15.10L119.04-15.10Q120.77-23.42 120.77-25.28L120.77-25.28L120.77-25.28Q120.77-28.99 118.59-28.99L118.59-28.99L118.59-28.99Q114.94-28.99 113.02-19.46L113.02-19.46L109.25 0L96.38 1.28L103.04-32.70L113.54-33.92L112.51-27.65L112.51-27.65Q115.52-33.92 124.74-33.92L124.74-33.92L124.74-33.92Q129.22-33.92 131.10-32.03L131.10-32.03L131.10-32.03Q132.99-30.14 132.99-25.92L132.99-25.92L132.99-25.92Q132.99-21.95 130.94-12.67L130.94-12.67L130.94-12.67Q129.98-8.51 129.98-6.94L129.98-6.94L129.98-6.94Q129.98-5.38 130.85-4.48L130.85-4.48L130.85-4.48Q131.71-3.58 132.99-3.46L132.99-3.46L132.99-3.46Q132.35-1.28 130.14 0L130.14 0L130.14 0Q127.94 1.28 125.06 1.28ZM166.66-3.52L166.66-3.52L166.66-3.52Q164.67 1.28 158.34 1.28L158.34 1.28L158.34 1.28Q155.07 1.28 153.02-0.96L153.02-0.96L153.02-0.96Q151.30-2.94 151.30-4.93L151.30-4.93L151.30-4.93Q151.30-10.11 153.66-20.22L153.66-20.22L156.03-32.64L169.02-33.92L165.12-13.70L165.12-13.70Q164.03-8.96 164.03-7.30L164.03-7.30L164.03-7.30Q164.03-3.65 166.66-3.52ZM157.18-41.54L157.18-41.54L157.18-41.54Q157.18-44.03 159.26-45.38L159.26-45.38L159.26-45.38Q161.34-46.72 164.35-46.72L164.35-46.72L164.35-46.72Q167.36-46.72 169.18-45.38L169.18-45.38L169.18-45.38Q171.01-44.03 171.01-41.54L171.01-41.54L171.01-41.54Q171.01-39.04 168.99-37.76L168.99-37.76L168.99-37.76Q166.98-36.48 163.97-36.48L163.97-36.48L163.97-36.48Q160.96-36.48 159.07-37.76L159.07-37.76L159.07-37.76Q157.18-39.04 157.18-41.54ZM199.17 1.28L199.17 1.28L199.17 1.28Q191.42 1.28 191.42-4.74L191.42-4.74L191.42-4.74Q191.49-6.40 192-9.22L192-9.22L193.15-15.10L193.15-15.10Q194.88-23.42 194.88-25.28L194.88-25.28L194.88-25.28Q194.88-28.99 192.70-28.99L192.70-28.99L192.70-28.99Q189.06-28.99 187.14-19.46L187.14-19.46L183.36 0L170.50 1.28L177.15-32.70L187.65-33.92L186.62-27.65L186.62-27.65Q189.63-33.92 198.85-33.92L198.85-33.92L198.85-33.92Q203.33-33.92 205.22-32.03L205.22-32.03L205.22-32.03Q207.10-30.14 207.10-25.92L207.10-25.92L207.10-25.92Q207.10-21.95 205.06-12.67L205.06-12.67L205.06-12.67Q204.10-8.51 204.10-6.94L204.10-6.94L204.10-6.94Q204.10-5.38 204.96-4.48L204.96-4.48L204.96-4.48Q205.82-3.58 207.10-3.46L207.10-3.46L207.10-3.46Q206.46-1.28 204.26 0L204.26 0L204.26 0Q202.05 1.28 199.17 1.28Z" fill="#ccc"></path></g></g><style>text {
  font-size: 64px;
  font-family: Arial Black;
  dominant-baseline: central;
  text-anchor: middle;
}</style></svg>